<svg id="Layer_2" data-name="Layer 2" xmlns="http://www.w3.org/2000/svg" viewBox="0 0 94.94 94.16"><defs><style>.cls-1{fill:#826550;fill-rule:evenodd;}</style></defs><title>advantage-1</title><path class="cls-1" d="M106.64,32.12A47.42,47.42,0,0,0,98.13,19q-1,1.89-2,3.78a42.82,42.82,0,0,1,6.42,10C103.91,32.57,105.27,32.35,106.64,32.12Z" transform="translate(-16.35 -3.73)"/><path class="cls-1" d="M106.36,47.29c.09,1.17.15,2.34.15,3.52A43.07,43.07,0,0,1,63.43,93.89q-1.17,0-2.34-.06a7.61,7.61,0,0,1,.22,1.84,6.72,6.72,0,0,1-.4,2.15c.83.05,1.68.07,2.52.07a47.13,47.13,0,0,0,47.08-47.08,48.16,48.16,0,0,0-.41-6.16A37.6,37.6,0,0,1,106.36,47.29Z" transform="translate(-16.35 -3.73)"/><path class="cls-1" d="M20.35,50.81A43.08,43.08,0,0,1,85,13.52c1.09-.86,2.21-1.73,3.36-2.62A47.07,47.07,0,1,0,46,94.54,18.38,18.38,0,0,1,45.44,90,43.06,43.06,0,0,1,20.35,50.81Z" transform="translate(-16.35 -3.73)"/><path class="cls-1" d="M55.12,88.64C62.86,85.92,71.43,79,69.66,68.81c-.9-5.14-4.48-5-7.27-9.25,14.44-12,24.21-28.66,33-46.26h-2C86,19,71.54,30.28,65,39.73c-2.6,3.78-4.59,9.32-7.27,13.88-4.54,7.75-15.12,21.23-6.6,31.06-1.38,4.62-1.21,12.39,4,12.56C58.39,95.5,53.74,92.62,55.12,88.64Zm8.31-38.83a2.59,2.59,0,1,1-2.58,2.58A2.59,2.59,0,0,1,63.43,49.81ZM53.14,78.72c-1.86-9,7-16.95,11.89-9.25C65.29,76.89,58.85,85.24,53.14,78.72Z" transform="translate(-16.35 -3.73)"/><path class="cls-1" d="M72.3,54.93c14-5.2,30.58-7.75,39-18.5-9.42,1.38-18.12,3.47-27.76,4.62C81.4,47.29,76.51,50.77,72.3,54.93Z" transform="translate(-16.35 -3.73)"/><path class="cls-1" d="M28.69,43.7c-4.23,12.25,8.42,16,21.8,13.88,3.79-4.82,5.85-10,2-15.87C47.58,34.25,31.57,35.34,28.69,43.7ZM34,51C28.85,40.13,46.86,39.9,48.51,45.68,50.69,53.31,39.41,53.71,34,51Z" transform="translate(-16.35 -3.73)"/></svg>