<svg id="Layer_2" data-name="Layer 2" xmlns="http://www.w3.org/2000/svg" viewBox="0 0 141.67 139.54"><defs><style>.cls-1{fill:#fff;}</style></defs><title>clock</title><path class="cls-1" d="M161,244V223.56a1,1,0,0,0-2,0V244c.33,0,.66,0,1,0Z" transform="translate(-89.17 -222.56)"/><path class="cls-1" d="M134.93,251c.57-.35,1.15-.67,1.74-1l-10.24-17.7a1,1,0,0,0-1.73,1Z" transform="translate(-89.17 -222.56)"/><path class="cls-1" d="M99.67,257.29a1,1,0,0,0,.36,1.37l17.68,10.27c.33-.59.66-1.17,1-1.73L101,256.93A1,1,0,0,0,99.67,257.29Z" transform="translate(-89.17 -222.56)"/><path class="cls-1" d="M195.58,231.08a1,1,0,0,0-1.37.37L183.41,250c.58.33,1.16.66,1.73,1l10.8-18.59A1,1,0,0,0,195.58,231.08Z" transform="translate(-89.17 -222.56)"/><path class="cls-1" d="M221,258.23a1,1,0,0,0-1-1.73l-18.62,10.77c.35.57.68,1.15,1,1.73Z" transform="translate(-89.17 -222.56)"/><path class="cls-1" d="M111.67,292.33c0-.33,0-.66,0-1H90.17a1,1,0,0,0,0,2h21.52C111.69,293,111.67,292.67,111.67,292.33Z" transform="translate(-89.17 -222.56)"/><path class="cls-1" d="M229.83,291.33H208.31c0,.34,0,.67,0,1s0,.67,0,1h21.52a1,1,0,0,0,0-2Z" transform="translate(-89.17 -222.56)"/><path class="cls-1" d="M220,326l-17.68-10.27c-.33.58-.66,1.16-1,1.73L219,327.74a1,1,0,0,0,.51.14A1,1,0,0,0,220,326Z" transform="translate(-89.17 -222.56)"/><path class="cls-1" d="M99.05,326.44a1,1,0,0,0,.5,1.86,1,1,0,0,0,.5-.13l18.62-10.77c-.35-.57-.68-1.15-1-1.73Z" transform="translate(-89.17 -222.56)"/><path class="cls-1" d="M185.07,333.67q-.85.51-1.74,1l10.24,17.7a1,1,0,0,0,.87.5,1,1,0,0,0,.86-1.5Z" transform="translate(-89.17 -222.56)"/><path class="cls-1" d="M124.06,352.22a1,1,0,0,0,.36,1.36,1,1,0,0,0,.5.14,1,1,0,0,0,.87-.5l10.8-18.6c-.58-.32-1.16-.65-1.73-1Z" transform="translate(-89.17 -222.56)"/><path class="cls-1" d="M159,340.64V361.1a1,1,0,0,0,2,0V340.64l-1,0C159.66,340.67,159.33,340.65,159,340.64Z" transform="translate(-89.17 -222.56)"/><path class="cls-1" d="M193.91,274.45a1.5,1.5,0,0,0-1.5-2.6L164,288.3h0a5.67,5.67,0,0,0-7.95,0l-20.34-11.82a1.5,1.5,0,0,0-1.51,2.6l20.35,11.82a5.27,5.27,0,0,0-.2,1.44,5.67,5.67,0,1,0,11.15-1.43Zm-29.4,14.46-.06-.08Zm.39.59,0,0Zm-9.78,0s0,0,0,0S155.12,289.47,155.12,289.46Zm.43-.63-.05.07ZM160,295a2.67,2.67,0,1,1,2.67-2.67A2.68,2.68,0,0,1,160,295Z" transform="translate(-89.17 -222.56)"/></svg>